# xmcd
#
# Track frame offsets:
#	150
#	15991
#	28106
#	39189
#	49169
#	56414
#	67755
#	76342
#	86521
#	101091
#	111174
#	122055
#	132217
#	147087
#	161890
#
# Disc length: 2316 seconds
#
# Revision: 20
# Processed by: cddbd v1.5.1PL0 Copyright (c) Steve Scherf et al.
# Submitted via: EasyCDDAExtractor 8.0.1.1
#
DISCID=bb090a0f
DTITLE=Johnny Cash - Unearthed Volume 4 (My Mother's Hymn Book)
DYEAR=2003
DGENRE=Country
TTITLE0=Where We'll Never Grow Old
TTITLE1=I Shall Not Be Moved
TTITLE2=I Am A Pilgrim
TTITLE3=Do Lord
TTITLE4=When The Roll Is Called Up Yonder
TTITLE5=If We Never Meet Again This Side Of Heaven
TTITLE6=I'll Fly Away
TTITLE7=Where The Soul Of Man Never Dies
TTITLE8=Let The Lower Lights Be Burning
TTITLE9=When He Reached Down
TTITLE10=In The Sweet By And By
TTITLE11=I'm Bound For The Promised Land
TTITLE12=In The Garden
TTITLE13=Softly And Tenderly
TTITLE14=Just As I Am
EXTD=
EXTT0=
EXTT1=
EXTT2=
EXTT3=
EXTT4=
EXTT5=
EXTT6=
EXTT7=
EXTT8=
EXTT9=
EXTT10=
EXTT11=
EXTT12=
EXTT13=
EXTT14=
PLAYORDER=
